HIERARCHY
ROOT pelvis
{
  OFFSET 0 100 0
  CHANNELS 6 Xposition Yposition Zposition Zrotation Xrotation Yrotation
  JOINT pelvis_right_femur
  {
    OFFSET -10.78128 -3.44521 -0.5502486
    CHANNELS 3 Zrotation Xrotation Yrotation
    JOINT right_femur_tibia
    {
      OFFSET -0.8047443 -44.0398 -0.1307829
      CHANNELS 3 Zrotation Xrotation Yrotation
      JOINT right_tibia_foot
      {
        OFFSET 3.006224 -47.83518 -5
        CHANNELS 3 Zrotation Xrotation Yrotation
        End Site
        {
          OFFSET 0 -5 15
        }
      }
    }
  }
  JOINT pelvis_left_femur
  {
    OFFSET 10.78128 -3.44521 -0.5502486
    CHANNELS 3 Zrotation Xrotation Yrotation
    JOINT left_femur_tibia
    {
      OFFSET 0.8047443 -44.0398 -0.1307829
      CHANNELS 3 Zrotation Xrotation Yrotation
      JOINT left_tibia_foot
      {
        OFFSET -4.370144 -48.10324 -4.275266
        CHANNELS 3 Zrotation Xrotation Yrotation
        End Site
        {
          OFFSET 0 -5 15
        }
      }
    }
  }
  JOINT pelvis_spine1
  {
    OFFSET 0 6.468898 -3.129235
    CHANNELS 3 Zrotation Xrotation Yrotation
    JOINT spine1
    {
      OFFSET 0 23.15396 4.99043
      CHANNELS 3 Zrotation Xrotation Yrotation
      JOINT spine2
      {
        OFFSET 0 20.79997 -5.064912
        CHANNELS 3 Zrotation Xrotation Yrotation
        JOINT neck
        {
          OFFSET 0 14.38658 9.616178
          CHANNELS 3 Zrotation Xrotation Yrotation
          End Site
          {
            OFFSET 0 20 0
          }
        }
      }
      JOINT right_manubrium
      {
        OFFSET -5.722621 16.35077 3.967754
        CHANNELS 3 Zrotation Xrotation Yrotation
        JOINT right_clavicle
        {
          OFFSET -13.16364 1.694482 -4.693211
          CHANNELS 3 Zrotation Xrotation Yrotation
          JOINT right_humerus
          {
            OFFSET -28.5034 -0.3100689 -2.792744
            CHANNELS 3 Zrotation Xrotation Yrotation
            JOINT right_radius
            {
              OFFSET -25.15693 0.02248979 -1.271978
              CHANNELS 3 Zrotation Xrotation Yrotation
              End Site
              {
                OFFSET -15 0 0
              }
            }
          }
        }
      }
      JOINT left_manubrium
      {
        OFFSET 5.722621 16.35077 3.967754
        CHANNELS 3 Zrotation Xrotation Yrotation
        JOINT left_clavicle
        {
          OFFSET 13.16364 1.694482 -4.693211
          CHANNELS 3 Zrotation Xrotation Yrotation
          JOINT left_humerus
          {
            OFFSET 29.39168 -1.063119 -2.237045
            CHANNELS 3 Zrotation Xrotation Yrotation
            JOINT left_radius
            {
              OFFSET 24.59957 -0.9528479 0.9047498
              CHANNELS 3 Zrotation Xrotation Yrotation
              End Site
              {
                OFFSET 15 -0 -0
              }
            }
          }
        }
      }
    }
  }
}
MOTION
Frames: 7
Frame Time: 0.0416666666667
30.44834 139.1404 279.2967 1.315233 -5.15824 -3.085737 0.4096257 7.327727 3.562835 -0 4.825514 -0 4.001013 -13.50758 -1.363364 -2.394911 -7.63555 -5.471573 -0 16.30109 -0 -7.061701 -9.916904 16.11688 -1.229066 -1.84199 7.000683 -0.2172673 8.82613 -4.53431 2.268393 21.74385 5.359773 1.442423 -15.28476 7.785611 0.9821049 -18.50334 10.08801 83.73931 23.91974 -11.58932 -0 0 19.40231 -24.39998 14.155 12.22429 5.589055 -17.10683 -3.784225 -88.17073 22.73419 16.43951 0 0 -16.3724 -0.5443379 7.613985 13.89489
30.79353 138.4421 286.4831 1.306974 -5.308814 -3.158996 0.3169018 7.151298 3.461058 -0 5.592318 -0 3.921314 -13.97906 -1.483998 -2.363928 -7.805529 -5.589938 -0 14.7883 -0 -6.975215 -10.43349 16.14748 -1.284255 -1.653146 6.914922 -0.296843 8.626216 -4.429352 2.345277 21.88321 5.284219 1.351951 -15.15103 7.870297 0.7655313 -18.52988 9.961884 83.66022 23.69596 -11.17609 -0 0 19.70045 -24.3151 13.97027 12.1814 5.63435 -16.91653 -3.737641 -88.18694 22.90768 16.39488 0 0 -16.13119 -0.5455827 7.748165 13.83613
31.14178 137.6407 293.6043 1.296434 -5.454851 -3.188155 0.2509751 6.803379 3.349349 -0 6.179118 -0 3.75439 -14.4211 -1.639763 -2.341687 -7.79331 -5.71573 -0 13.46691 -0 -6.882478 -10.94943 16.17108 -1.341974 -1.463292 6.794683 -0.3548079 8.432187 -4.354746 2.421538 22.03464 5.205264 1.268513 -15.02133 7.946864 0.5570843 -18.50314 9.837353 83.64294 23.51812 -10.86296 -0 0 19.86757 -24.17874 13.78316 12.10113 5.687119 -16.7824 -3.697712 -88.14579 23.08431 16.21819 0 0 -15.97248 -0.5015505 7.918085 13.71461
31.48368 136.74 300.6553 1.281196 -5.59545 -3.184234 0.2166387 6.27301 3.228154 -0 6.553252 -0 3.497021 -14.83345 -1.833141 -2.3257 -7.587207 -5.846871 -0 12.36707 -0 -6.787274 -11.45886 16.18635 -1.399598 -1.273143 6.638935 -0.3890484 8.245997 -4.312588 2.497136 22.1973 5.122803 1.192916 -14.89633 8.01438 0.3583261 -18.42012 9.715925 83.68966 23.38771 -10.65907 -0 0 19.89437 -23.98813 13.59543 11.98064 5.748531 -16.70981 -3.664999 -88.04331 23.26146 15.90082 0 0 -15.90631 -0.4090886 8.123904 13.5266
31.80783 135.744 307.6315 1.25942 -5.730087 -3.159082 0.2158234 5.561263 3.098655 -0 6.700207 -0 3.150271 -15.2158 -2.064163 -2.313679 -7.187735 -5.981507 -0 11.50305 -0 -6.692191 -11.95669 16.19289 -1.455089 -1.083592 6.448697 -0.3989886 8.069266 -4.303095 2.571885 22.36983 5.036992 1.125596 -14.77674 8.072303 0.1704112 -18.28152 9.598953 83.79929 23.30399 -10.5667 -0 0 19.78004 -23.74389 13.40832 11.82002 5.818882 -16.7003 -3.639666 -87.87981 23.43614 15.44365 0 0 -15.93556 -0.2675126 8.364 13.27196
32.10182 134.6571 314.5292 1.229819 -5.858576 -3.124632 0.24804 4.680221 2.962594 -0 6.621324 -0 2.718813 -15.56747 -2.330478 -2.303595 -6.606567 -6.118049 -0 10.87532 -0 -6.598661 -12.43839 16.19129 -1.506935 -0.8956603 6.22679 -0.3854013 7.903354 -4.324787 2.645432 22.55048 4.948277 1.066728 -14.66337 8.12041 -0.005896204 -18.09138 9.487638 83.96806 23.26425 -10.58198 -0 0 19.53123 -23.44973 13.22257 11.62201 5.897697 -16.7521 -3.621544 -87.65966 23.60492 14.85611 0 0 -16.05646 -0.07829262 8.635277 12.95366
32.35302 133.4839 321.3454 1.191645 -5.981043 -3.092293 0.3108503 3.652437 2.821954 -0 6.331493 -0 2.2102 -15.88716 -2.627317 -2.293695 -5.865959 -6.255183 -0 10.47276 -0 -6.506998 -12.89959 16.1834 -1.554069 -0.7104515 5.977649 -0.3502458 7.749514 -4.374594 2.71722 22.73724 4.857448 1.016387 -14.55723 8.1587 -0.1701837 -17.85679 9.38308 84.18979 23.26413 -10.69542 -0 0 19.16101 -23.11223 13.0383 11.39188 5.983837 -16.86046 -3.610211 -87.39121 23.764 14.1557 0 0 -16.25891 0.1552355 8.933499 12.5773
